<?xml version="1.0" encoding="UTF-8"?>
<svg width="200px" height="200px" viewBox="0 0 200 200" version="1.1" xmlns="http://www.w3.org/2000/svg" xmlns:xlink="http://www.w3.org/1999/xlink">
    <!-- Generator: Sketch 52.5 (67469) - http://www.bohemiancoding.com/sketch -->
    <title>logo@1x</title>
    <desc>Created with Sketch.</desc>
    <g id="Page-1" stroke="none" stroke-width="1" fill="none" fill-rule="evenodd">
        <path d="M50.2617487,107.409007 C50.2617487,135.900697 50.2617487,163.388367 50.2617487,177.470641 C64.234176,187.782649 82.7834377,192.642851 100,192.642851 C119.896522,192.642851 135.401324,187.460446 149.464447,177.470641 C149.464447,166.235391 149.464447,139.721977 149.464447,111 L89.5965214,111 L123.901836,140.349516 L123.901836,168 L50.2617487,107.409006 Z M50.2617487,92.2219194 L123.901836,32 L123.901836,59.861304 L89.5965214,89.0291905 L149.464447,89.0291905 C149.464447,62.3973097 149.464447,36.6859414 149.464447,22.0130872 C135.115197,12.4158566 118.289948,6.94167994 99.8630981,6.94167994 C82.9780398,6.94167994 65.7767715,11.9468578 50.2617487,22.0130872 C50.2617487,35.3833639 50.2617487,63.1799741 50.2617487,92.2219185 Z M100,200 C44.771525,200 0,155.228475 0,100 C0,44.771525 44.771525,0 100,0 C155.228475,0 200,44.771525 200,100 C200,155.228475 155.228475,200 100,200 Z" id="Combined-Shape" fill="#D7A658" fill-rule="nonzero"></path>
    </g>
</svg>